<?xml version="1.0" encoding="utf-8" standalone="no"?>
<!DOCTYPE svg PUBLIC "-//W3C//DTD SVG 1.1//EN"
  "http://www.w3.org/Graphics/SVG/1.1/DTD/svg11.dtd">
<svg xmlns:xlink="http://www.w3.org/1999/xlink" width="460.8pt" height="345.6pt" viewBox="0 0 460.8 345.6" xmlns="http://www.w3.org/2000/svg" version="1.1">
 <metadata>
  <rdf:RDF xmlns:dc="http://purl.org/dc/elements/1.1/" xmlns:cc="http://creativecommons.org/ns#" xmlns:rdf="http://www.w3.org/1999/02/22-rdf-syntax-ns#">
   <cc:Work>
    <dc:type rdf:resource="http://purl.org/dc/dcmitype/StillImage"/>
    <dc:date>2023-06-17T17:02:45.402591</dc:date>
    <dc:format>image/svg+xml</dc:format>
    <dc:creator>
     <cc:Agent>
      <dc:title>Matplotlib v3.7.1, https://matplotlib.org/</dc:title>
     </cc:Agent>
    </dc:creator>
   </cc:Work>
  </rdf:RDF>
 </metadata>
 <defs>
  <style type="text/css">*{stroke-linejoin: round; stroke-linecap: butt}</style>
 </defs>
 <g id="figure_1">
  <g id="patch_1">
   <path d="M 0 345.6 
L 460.8 345.6 
L 460.8 0 
L 0 0 
z
" style="fill: #ffffff"/>
  </g>
  <g id="axes_1">
   <g id="patch_2">
    <path d="M 57.6 307.584 
L 414.72 307.584 
L 414.72 41.472 
L 57.6 41.472 
z
" style="fill: #ffffff"/>
   </g>
   <g id="matplotlib.axis_1">
    <g id="xtick_1">
     <g id="line2d_1">
      <defs>
       <path id="m5ae481bea7" d="M 0 0 
L 0 3.5 
" style="stroke: #000000; stroke-width: 0.8"/>
      </defs>
      <g>
       <use xlink:href="#m5ae481bea7" x="95.441228" y="307.584" style="stroke: #000000; stroke-width: 0.8"/>
      </g>
     </g>
     <g id="text_1">
      <!-- 06-13 00 -->
      <g transform="translate(72.960759 322.182437) scale(0.1 -0.1)">
       <defs>
        <path id="DejaVuSans-30" d="M 2034 4250 
Q 1547 4250 1301 3770 
Q 1056 3291 1056 2328 
Q 1056 1369 1301 889 
Q 1547 409 2034 409 
Q 2525 409 2770 889 
Q 3016 1369 3016 2328 
Q 3016 3291 2770 3770 
Q 2525 4250 2034 4250 
z
M 2034 4750 
Q 2819 4750 3233 4129 
Q 3647 3509 3647 2328 
Q 3647 1150 3233 529 
Q 2819 -91 2034 -91 
Q 1250 -91 836 529 
Q 422 1150 422 2328 
Q 422 3509 836 4129 
Q 1250 4750 2034 4750 
z
" transform="scale(0.015625)"/>
        <path id="DejaVuSans-36" d="M 2113 2584 
Q 1688 2584 1439 2293 
Q 1191 2003 1191 1497 
Q 1191 994 1439 701 
Q 1688 409 2113 409 
Q 2538 409 2786 701 
Q 3034 994 3034 1497 
Q 3034 2003 2786 2293 
Q 2538 2584 2113 2584 
z
M 3366 4563 
L 3366 3988 
Q 3128 4100 2886 4159 
Q 2644 4219 2406 4219 
Q 1781 4219 1451 3797 
Q 1122 3375 1075 2522 
Q 1259 2794 1537 2939 
Q 1816 3084 2150 3084 
Q 2853 3084 3261 2657 
Q 3669 2231 3669 1497 
Q 3669 778 3244 343 
Q 2819 -91 2113 -91 
Q 1303 -91 875 529 
Q 447 1150 447 2328 
Q 447 3434 972 4092 
Q 1497 4750 2381 4750 
Q 2619 4750 2861 4703 
Q 3103 4656 3366 4563 
z
" transform="scale(0.015625)"/>
        <path id="DejaVuSans-2d" d="M 313 2009 
L 1997 2009 
L 1997 1497 
L 313 1497 
L 313 2009 
z
" transform="scale(0.015625)"/>
        <path id="DejaVuSans-31" d="M 794 531 
L 1825 531 
L 1825 4091 
L 703 3866 
L 703 4441 
L 1819 4666 
L 2450 4666 
L 2450 531 
L 3481 531 
L 3481 0 
L 794 0 
L 794 531 
z
" transform="scale(0.015625)"/>
        <path id="DejaVuSans-33" d="M 2597 2516 
Q 3050 2419 3304 2112 
Q 3559 1806 3559 1356 
Q 3559 666 3084 287 
Q 2609 -91 1734 -91 
Q 1441 -91 1130 -33 
Q 819 25 488 141 
L 488 750 
Q 750 597 1062 519 
Q 1375 441 1716 441 
Q 2309 441 2620 675 
Q 2931 909 2931 1356 
Q 2931 1769 2642 2001 
Q 2353 2234 1838 2234 
L 1294 2234 
L 1294 2753 
L 1863 2753 
Q 2328 2753 2575 2939 
Q 2822 3125 2822 3475 
Q 2822 3834 2567 4026 
Q 2313 4219 1838 4219 
Q 1578 4219 1281 4162 
Q 984 4106 628 3988 
L 628 4550 
Q 988 4650 1302 4700 
Q 1616 4750 1894 4750 
Q 2613 4750 3031 4423 
Q 3450 4097 3450 3541 
Q 3450 3153 3228 2886 
Q 3006 2619 2597 2516 
z
" transform="scale(0.015625)"/>
        <path id="DejaVuSans-20" transform="scale(0.015625)"/>
       </defs>
       <use xlink:href="#DejaVuSans-30"/>
       <use xlink:href="#DejaVuSans-36" x="63.623047"/>
       <use xlink:href="#DejaVuSans-2d" x="127.246094"/>
       <use xlink:href="#DejaVuSans-31" x="163.330078"/>
       <use xlink:href="#DejaVuSans-33" x="226.953125"/>
       <use xlink:href="#DejaVuSans-20" x="290.576172"/>
       <use xlink:href="#DejaVuSans-30" x="322.363281"/>
       <use xlink:href="#DejaVuSans-30" x="385.986328"/>
      </g>
     </g>
    </g>
    <g id="xtick_2">
     <g id="line2d_2">
      <g>
       <use xlink:href="#m5ae481bea7" x="133.387863" y="307.584" style="stroke: #000000; stroke-width: 0.8"/>
      </g>
     </g>
     <g id="text_2">
      <!-- 06-13 12 -->
      <g transform="translate(110.907394 322.182437) scale(0.1 -0.1)">
       <defs>
        <path id="DejaVuSans-32" d="M 1228 531 
L 3431 531 
L 3431 0 
L 469 0 
L 469 531 
Q 828 903 1448 1529 
Q 2069 2156 2228 2338 
Q 2531 2678 2651 2914 
Q 2772 3150 2772 3378 
Q 2772 3750 2511 3984 
Q 2250 4219 1831 4219 
Q 1534 4219 1204 4116 
Q 875 4013 500 3803 
L 500 4441 
Q 881 4594 1212 4672 
Q 1544 4750 1819 4750 
Q 2544 4750 2975 4387 
Q 3406 4025 3406 3419 
Q 3406 3131 3298 2873 
Q 3191 2616 2906 2266 
Q 2828 2175 2409 1742 
Q 1991 1309 1228 531 
z
" transform="scale(0.015625)"/>
       </defs>
       <use xlink:href="#DejaVuSans-30"/>
       <use xlink:href="#DejaVuSans-36" x="63.623047"/>
       <use xlink:href="#DejaVuSans-2d" x="127.246094"/>
       <use xlink:href="#DejaVuSans-31" x="163.330078"/>
       <use xlink:href="#DejaVuSans-33" x="226.953125"/>
       <use xlink:href="#DejaVuSans-20" x="290.576172"/>
       <use xlink:href="#DejaVuSans-31" x="322.363281"/>
       <use xlink:href="#DejaVuSans-32" x="385.986328"/>
      </g>
     </g>
    </g>
    <g id="xtick_3">
     <g id="line2d_3">
      <g>
       <use xlink:href="#m5ae481bea7" x="171.334498" y="307.584" style="stroke: #000000; stroke-width: 0.8"/>
      </g>
     </g>
     <g id="text_3">
      <!-- 06-14 00 -->
      <g transform="translate(148.854029 322.182437) scale(0.1 -0.1)">
       <defs>
        <path id="DejaVuSans-34" d="M 2419 4116 
L 825 1625 
L 2419 1625 
L 2419 4116 
z
M 2253 4666 
L 3047 4666 
L 3047 1625 
L 3713 1625 
L 3713 1100 
L 3047 1100 
L 3047 0 
L 2419 0 
L 2419 1100 
L 313 1100 
L 313 1709 
L 2253 4666 
z
" transform="scale(0.015625)"/>
       </defs>
       <use xlink:href="#DejaVuSans-30"/>
       <use xlink:href="#DejaVuSans-36" x="63.623047"/>
       <use xlink:href="#DejaVuSans-2d" x="127.246094"/>
       <use xlink:href="#DejaVuSans-31" x="163.330078"/>
       <use xlink:href="#DejaVuSans-34" x="226.953125"/>
       <use xlink:href="#DejaVuSans-20" x="290.576172"/>
       <use xlink:href="#DejaVuSans-30" x="322.363281"/>
       <use xlink:href="#DejaVuSans-30" x="385.986328"/>
      </g>
     </g>
    </g>
    <g id="xtick_4">
     <g id="line2d_4">
      <g>
       <use xlink:href="#m5ae481bea7" x="209.281133" y="307.584" style="stroke: #000000; stroke-width: 0.8"/>
      </g>
     </g>
     <g id="text_4">
      <!-- 06-14 12 -->
      <g transform="translate(186.800665 322.182437) scale(0.1 -0.1)">
       <use xlink:href="#DejaVuSans-30"/>
       <use xlink:href="#DejaVuSans-36" x="63.623047"/>
       <use xlink:href="#DejaVuSans-2d" x="127.246094"/>
       <use xlink:href="#DejaVuSans-31" x="163.330078"/>
       <use xlink:href="#DejaVuSans-34" x="226.953125"/>
       <use xlink:href="#DejaVuSans-20" x="290.576172"/>
       <use xlink:href="#DejaVuSans-31" x="322.363281"/>
       <use xlink:href="#DejaVuSans-32" x="385.986328"/>
      </g>
     </g>
    </g>
    <g id="xtick_5">
     <g id="line2d_5">
      <g>
       <use xlink:href="#m5ae481bea7" x="247.227769" y="307.584" style="stroke: #000000; stroke-width: 0.8"/>
      </g>
     </g>
     <g id="text_5">
      <!-- 06-15 00 -->
      <g transform="translate(224.7473 322.182437) scale(0.1 -0.1)">
       <defs>
        <path id="DejaVuSans-35" d="M 691 4666 
L 3169 4666 
L 3169 4134 
L 1269 4134 
L 1269 2991 
Q 1406 3038 1543 3061 
Q 1681 3084 1819 3084 
Q 2600 3084 3056 2656 
Q 3513 2228 3513 1497 
Q 3513 744 3044 326 
Q 2575 -91 1722 -91 
Q 1428 -91 1123 -41 
Q 819 9 494 109 
L 494 744 
Q 775 591 1075 516 
Q 1375 441 1709 441 
Q 2250 441 2565 725 
Q 2881 1009 2881 1497 
Q 2881 1984 2565 2268 
Q 2250 2553 1709 2553 
Q 1456 2553 1204 2497 
Q 953 2441 691 2322 
L 691 4666 
z
" transform="scale(0.015625)"/>
       </defs>
       <use xlink:href="#DejaVuSans-30"/>
       <use xlink:href="#DejaVuSans-36" x="63.623047"/>
       <use xlink:href="#DejaVuSans-2d" x="127.246094"/>
       <use xlink:href="#DejaVuSans-31" x="163.330078"/>
       <use xlink:href="#DejaVuSans-35" x="226.953125"/>
       <use xlink:href="#DejaVuSans-20" x="290.576172"/>
       <use xlink:href="#DejaVuSans-30" x="322.363281"/>
       <use xlink:href="#DejaVuSans-30" x="385.986328"/>
      </g>
     </g>
    </g>
    <g id="xtick_6">
     <g id="line2d_6">
      <g>
       <use xlink:href="#m5ae481bea7" x="285.174404" y="307.584" style="stroke: #000000; stroke-width: 0.8"/>
      </g>
     </g>
     <g id="text_6">
      <!-- 06-15 12 -->
      <g transform="translate(262.693935 322.182437) scale(0.1 -0.1)">
       <use xlink:href="#DejaVuSans-30"/>
       <use xlink:href="#DejaVuSans-36" x="63.623047"/>
       <use xlink:href="#DejaVuSans-2d" x="127.246094"/>
       <use xlink:href="#DejaVuSans-31" x="163.330078"/>
       <use xlink:href="#DejaVuSans-35" x="226.953125"/>
       <use xlink:href="#DejaVuSans-20" x="290.576172"/>
       <use xlink:href="#DejaVuSans-31" x="322.363281"/>
       <use xlink:href="#DejaVuSans-32" x="385.986328"/>
      </g>
     </g>
    </g>
    <g id="xtick_7">
     <g id="line2d_7">
      <g>
       <use xlink:href="#m5ae481bea7" x="323.121039" y="307.584" style="stroke: #000000; stroke-width: 0.8"/>
      </g>
     </g>
     <g id="text_7">
      <!-- 06-16 00 -->
      <g transform="translate(300.64057 322.182437) scale(0.1 -0.1)">
       <use xlink:href="#DejaVuSans-30"/>
       <use xlink:href="#DejaVuSans-36" x="63.623047"/>
       <use xlink:href="#DejaVuSans-2d" x="127.246094"/>
       <use xlink:href="#DejaVuSans-31" x="163.330078"/>
       <use xlink:href="#DejaVuSans-36" x="226.953125"/>
       <use xlink:href="#DejaVuSans-20" x="290.576172"/>
       <use xlink:href="#DejaVuSans-30" x="322.363281"/>
       <use xlink:href="#DejaVuSans-30" x="385.986328"/>
      </g>
     </g>
    </g>
    <g id="xtick_8">
     <g id="line2d_8">
      <g>
       <use xlink:href="#m5ae481bea7" x="361.067674" y="307.584" style="stroke: #000000; stroke-width: 0.8"/>
      </g>
     </g>
     <g id="text_8">
      <!-- 06-16 12 -->
      <g transform="translate(338.587205 322.182437) scale(0.1 -0.1)">
       <use xlink:href="#DejaVuSans-30"/>
       <use xlink:href="#DejaVuSans-36" x="63.623047"/>
       <use xlink:href="#DejaVuSans-2d" x="127.246094"/>
       <use xlink:href="#DejaVuSans-31" x="163.330078"/>
       <use xlink:href="#DejaVuSans-36" x="226.953125"/>
       <use xlink:href="#DejaVuSans-20" x="290.576172"/>
       <use xlink:href="#DejaVuSans-31" x="322.363281"/>
       <use xlink:href="#DejaVuSans-32" x="385.986328"/>
      </g>
     </g>
    </g>
    <g id="xtick_9">
     <g id="line2d_9">
      <g>
       <use xlink:href="#m5ae481bea7" x="399.014309" y="307.584" style="stroke: #000000; stroke-width: 0.8"/>
      </g>
     </g>
     <g id="text_9">
      <!-- 06-17 00 -->
      <g transform="translate(376.533841 322.182437) scale(0.1 -0.1)">
       <defs>
        <path id="DejaVuSans-37" d="M 525 4666 
L 3525 4666 
L 3525 4397 
L 1831 0 
L 1172 0 
L 2766 4134 
L 525 4134 
L 525 4666 
z
" transform="scale(0.015625)"/>
       </defs>
       <use xlink:href="#DejaVuSans-30"/>
       <use xlink:href="#DejaVuSans-36" x="63.623047"/>
       <use xlink:href="#DejaVuSans-2d" x="127.246094"/>
       <use xlink:href="#DejaVuSans-31" x="163.330078"/>
       <use xlink:href="#DejaVuSans-37" x="226.953125"/>
       <use xlink:href="#DejaVuSans-20" x="290.576172"/>
       <use xlink:href="#DejaVuSans-30" x="322.363281"/>
       <use xlink:href="#DejaVuSans-30" x="385.986328"/>
      </g>
     </g>
    </g>
    <g id="text_10">
     <!-- Datum -->
     <g transform="translate(219.246719 335.860562) scale(0.1 -0.1)">
      <defs>
       <path id="DejaVuSans-44" d="M 1259 4147 
L 1259 519 
L 2022 519 
Q 2988 519 3436 956 
Q 3884 1394 3884 2338 
Q 3884 3275 3436 3711 
Q 2988 4147 2022 4147 
L 1259 4147 
z
M 628 4666 
L 1925 4666 
Q 3281 4666 3915 4102 
Q 4550 3538 4550 2338 
Q 4550 1131 3912 565 
Q 3275 0 1925 0 
L 628 0 
L 628 4666 
z
" transform="scale(0.015625)"/>
       <path id="DejaVuSans-61" d="M 2194 1759 
Q 1497 1759 1228 1600 
Q 959 1441 959 1056 
Q 959 750 1161 570 
Q 1363 391 1709 391 
Q 2188 391 2477 730 
Q 2766 1069 2766 1631 
L 2766 1759 
L 2194 1759 
z
M 3341 1997 
L 3341 0 
L 2766 0 
L 2766 531 
Q 2569 213 2275 61 
Q 1981 -91 1556 -91 
Q 1019 -91 701 211 
Q 384 513 384 1019 
Q 384 1609 779 1909 
Q 1175 2209 1959 2209 
L 2766 2209 
L 2766 2266 
Q 2766 2663 2505 2880 
Q 2244 3097 1772 3097 
Q 1472 3097 1187 3025 
Q 903 2953 641 2809 
L 641 3341 
Q 956 3463 1253 3523 
Q 1550 3584 1831 3584 
Q 2591 3584 2966 3190 
Q 3341 2797 3341 1997 
z
" transform="scale(0.015625)"/>
       <path id="DejaVuSans-74" d="M 1172 4494 
L 1172 3500 
L 2356 3500 
L 2356 3053 
L 1172 3053 
L 1172 1153 
Q 1172 725 1289 603 
Q 1406 481 1766 481 
L 2356 481 
L 2356 0 
L 1766 0 
Q 1100 0 847 248 
Q 594 497 594 1153 
L 594 3053 
L 172 3053 
L 172 3500 
L 594 3500 
L 594 4494 
L 1172 4494 
z
" transform="scale(0.015625)"/>
       <path id="DejaVuSans-75" d="M 544 1381 
L 544 3500 
L 1119 3500 
L 1119 1403 
Q 1119 906 1312 657 
Q 1506 409 1894 409 
Q 2359 409 2629 706 
Q 2900 1003 2900 1516 
L 2900 3500 
L 3475 3500 
L 3475 0 
L 2900 0 
L 2900 538 
Q 2691 219 2414 64 
Q 2138 -91 1772 -91 
Q 1169 -91 856 284 
Q 544 659 544 1381 
z
M 1991 3584 
L 1991 3584 
z
" transform="scale(0.015625)"/>
       <path id="DejaVuSans-6d" d="M 3328 2828 
Q 3544 3216 3844 3400 
Q 4144 3584 4550 3584 
Q 5097 3584 5394 3201 
Q 5691 2819 5691 2113 
L 5691 0 
L 5113 0 
L 5113 2094 
Q 5113 2597 4934 2840 
Q 4756 3084 4391 3084 
Q 3944 3084 3684 2787 
Q 3425 2491 3425 1978 
L 3425 0 
L 2847 0 
L 2847 2094 
Q 2847 2600 2669 2842 
Q 2491 3084 2119 3084 
Q 1678 3084 1418 2786 
Q 1159 2488 1159 1978 
L 1159 0 
L 581 0 
L 581 3500 
L 1159 3500 
L 1159 2956 
Q 1356 3278 1631 3431 
Q 1906 3584 2284 3584 
Q 2666 3584 2933 3390 
Q 3200 3197 3328 2828 
z
" transform="scale(0.015625)"/>
      </defs>
      <use xlink:href="#DejaVuSans-44"/>
      <use xlink:href="#DejaVuSans-61" x="77.001953"/>
      <use xlink:href="#DejaVuSans-74" x="138.28125"/>
      <use xlink:href="#DejaVuSans-75" x="177.490234"/>
      <use xlink:href="#DejaVuSans-6d" x="240.869141"/>
     </g>
    </g>
   </g>
   <g id="matplotlib.axis_2">
    <g id="ytick_1">
     <g id="line2d_10">
      <defs>
       <path id="ma286f919e1" d="M 0 0 
L -3.5 0 
" style="stroke: #000000; stroke-width: 0.8"/>
      </defs>
      <g>
       <use xlink:href="#ma286f919e1" x="57.6" y="293.842286" style="stroke: #000000; stroke-width: 0.8"/>
      </g>
     </g>
     <g id="text_11">
      <!-- 10 -->
      <g transform="translate(37.875 297.641504) scale(0.1 -0.1)">
       <use xlink:href="#DejaVuSans-31"/>
       <use xlink:href="#DejaVuSans-30" x="63.623047"/>
      </g>
     </g>
    </g>
    <g id="ytick_2">
     <g id="line2d_11">
      <g>
       <use xlink:href="#ma286f919e1" x="57.6" y="260.928" style="stroke: #000000; stroke-width: 0.8"/>
      </g>
     </g>
     <g id="text_12">
      <!-- 12 -->
      <g transform="translate(37.875 264.727219) scale(0.1 -0.1)">
       <use xlink:href="#DejaVuSans-31"/>
       <use xlink:href="#DejaVuSans-32" x="63.623047"/>
      </g>
     </g>
    </g>
    <g id="ytick_3">
     <g id="line2d_12">
      <g>
       <use xlink:href="#ma286f919e1" x="57.6" y="228.013714" style="stroke: #000000; stroke-width: 0.8"/>
      </g>
     </g>
     <g id="text_13">
      <!-- 14 -->
      <g transform="translate(37.875 231.812933) scale(0.1 -0.1)">
       <use xlink:href="#DejaVuSans-31"/>
       <use xlink:href="#DejaVuSans-34" x="63.623047"/>
      </g>
     </g>
    </g>
    <g id="ytick_4">
     <g id="line2d_13">
      <g>
       <use xlink:href="#ma286f919e1" x="57.6" y="195.099429" style="stroke: #000000; stroke-width: 0.8"/>
      </g>
     </g>
     <g id="text_14">
      <!-- 16 -->
      <g transform="translate(37.875 198.898647) scale(0.1 -0.1)">
       <use xlink:href="#DejaVuSans-31"/>
       <use xlink:href="#DejaVuSans-36" x="63.623047"/>
      </g>
     </g>
    </g>
    <g id="ytick_5">
     <g id="line2d_14">
      <g>
       <use xlink:href="#ma286f919e1" x="57.6" y="162.185143" style="stroke: #000000; stroke-width: 0.8"/>
      </g>
     </g>
     <g id="text_15">
      <!-- 18 -->
      <g transform="translate(37.875 165.984362) scale(0.1 -0.1)">
       <defs>
        <path id="DejaVuSans-38" d="M 2034 2216 
Q 1584 2216 1326 1975 
Q 1069 1734 1069 1313 
Q 1069 891 1326 650 
Q 1584 409 2034 409 
Q 2484 409 2743 651 
Q 3003 894 3003 1313 
Q 3003 1734 2745 1975 
Q 2488 2216 2034 2216 
z
M 1403 2484 
Q 997 2584 770 2862 
Q 544 3141 544 3541 
Q 544 4100 942 4425 
Q 1341 4750 2034 4750 
Q 2731 4750 3128 4425 
Q 3525 4100 3525 3541 
Q 3525 3141 3298 2862 
Q 3072 2584 2669 2484 
Q 3125 2378 3379 2068 
Q 3634 1759 3634 1313 
Q 3634 634 3220 271 
Q 2806 -91 2034 -91 
Q 1263 -91 848 271 
Q 434 634 434 1313 
Q 434 1759 690 2068 
Q 947 2378 1403 2484 
z
M 1172 3481 
Q 1172 3119 1398 2916 
Q 1625 2713 2034 2713 
Q 2441 2713 2670 2916 
Q 2900 3119 2900 3481 
Q 2900 3844 2670 4047 
Q 2441 4250 2034 4250 
Q 1625 4250 1398 4047 
Q 1172 3844 1172 3481 
z
" transform="scale(0.015625)"/>
       </defs>
       <use xlink:href="#DejaVuSans-31"/>
       <use xlink:href="#DejaVuSans-38" x="63.623047"/>
      </g>
     </g>
    </g>
    <g id="ytick_6">
     <g id="line2d_15">
      <g>
       <use xlink:href="#ma286f919e1" x="57.6" y="129.270857" style="stroke: #000000; stroke-width: 0.8"/>
      </g>
     </g>
     <g id="text_16">
      <!-- 20 -->
      <g transform="translate(37.875 133.070076) scale(0.1 -0.1)">
       <use xlink:href="#DejaVuSans-32"/>
       <use xlink:href="#DejaVuSans-30" x="63.623047"/>
      </g>
     </g>
    </g>
    <g id="ytick_7">
     <g id="line2d_16">
      <g>
       <use xlink:href="#ma286f919e1" x="57.6" y="96.356571" style="stroke: #000000; stroke-width: 0.8"/>
      </g>
     </g>
     <g id="text_17">
      <!-- 22 -->
      <g transform="translate(37.875 100.15579) scale(0.1 -0.1)">
       <use xlink:href="#DejaVuSans-32"/>
       <use xlink:href="#DejaVuSans-32" x="63.623047"/>
      </g>
     </g>
    </g>
    <g id="ytick_8">
     <g id="line2d_17">
      <g>
       <use xlink:href="#ma286f919e1" x="57.6" y="63.442286" style="stroke: #000000; stroke-width: 0.8"/>
      </g>
     </g>
     <g id="text_18">
      <!-- 24 -->
      <g transform="translate(37.875 67.241504) scale(0.1 -0.1)">
       <use xlink:href="#DejaVuSans-32"/>
       <use xlink:href="#DejaVuSans-34" x="63.623047"/>
      </g>
     </g>
    </g>
    <g id="text_19">
     <!-- Temperaturen in °C -->
     <g transform="translate(31.795312 223.093625) rotate(-90) scale(0.1 -0.1)">
      <defs>
       <path id="DejaVuSans-54" d="M -19 4666 
L 3928 4666 
L 3928 4134 
L 2272 4134 
L 2272 0 
L 1638 0 
L 1638 4134 
L -19 4134 
L -19 4666 
z
" transform="scale(0.015625)"/>
       <path id="DejaVuSans-65" d="M 3597 1894 
L 3597 1613 
L 953 1613 
Q 991 1019 1311 708 
Q 1631 397 2203 397 
Q 2534 397 2845 478 
Q 3156 559 3463 722 
L 3463 178 
Q 3153 47 2828 -22 
Q 2503 -91 2169 -91 
Q 1331 -91 842 396 
Q 353 884 353 1716 
Q 353 2575 817 3079 
Q 1281 3584 2069 3584 
Q 2775 3584 3186 3129 
Q 3597 2675 3597 1894 
z
M 3022 2063 
Q 3016 2534 2758 2815 
Q 2500 3097 2075 3097 
Q 1594 3097 1305 2825 
Q 1016 2553 972 2059 
L 3022 2063 
z
" transform="scale(0.015625)"/>
       <path id="DejaVuSans-70" d="M 1159 525 
L 1159 -1331 
L 581 -1331 
L 581 3500 
L 1159 3500 
L 1159 2969 
Q 1341 3281 1617 3432 
Q 1894 3584 2278 3584 
Q 2916 3584 3314 3078 
Q 3713 2572 3713 1747 
Q 3713 922 3314 415 
Q 2916 -91 2278 -91 
Q 1894 -91 1617 61 
Q 1341 213 1159 525 
z
M 3116 1747 
Q 3116 2381 2855 2742 
Q 2594 3103 2138 3103 
Q 1681 3103 1420 2742 
Q 1159 2381 1159 1747 
Q 1159 1113 1420 752 
Q 1681 391 2138 391 
Q 2594 391 2855 752 
Q 3116 1113 3116 1747 
z
" transform="scale(0.015625)"/>
       <path id="DejaVuSans-72" d="M 2631 2963 
Q 2534 3019 2420 3045 
Q 2306 3072 2169 3072 
Q 1681 3072 1420 2755 
Q 1159 2438 1159 1844 
L 1159 0 
L 581 0 
L 581 3500 
L 1159 3500 
L 1159 2956 
Q 1341 3275 1631 3429 
Q 1922 3584 2338 3584 
Q 2397 3584 2469 3576 
Q 2541 3569 2628 3553 
L 2631 2963 
z
" transform="scale(0.015625)"/>
       <path id="DejaVuSans-6e" d="M 3513 2113 
L 3513 0 
L 2938 0 
L 2938 2094 
Q 2938 2591 2744 2837 
Q 2550 3084 2163 3084 
Q 1697 3084 1428 2787 
Q 1159 2491 1159 1978 
L 1159 0 
L 581 0 
L 581 3500 
L 1159 3500 
L 1159 2956 
Q 1366 3272 1645 3428 
Q 1925 3584 2291 3584 
Q 2894 3584 3203 3211 
Q 3513 2838 3513 2113 
z
" transform="scale(0.015625)"/>
       <path id="DejaVuSans-69" d="M 603 3500 
L 1178 3500 
L 1178 0 
L 603 0 
L 603 3500 
z
M 603 4863 
L 1178 4863 
L 1178 4134 
L 603 4134 
L 603 4863 
z
" transform="scale(0.015625)"/>
       <path id="DejaVuSans-b0" d="M 1600 4347 
Q 1350 4347 1178 4173 
Q 1006 4000 1006 3750 
Q 1006 3503 1178 3333 
Q 1350 3163 1600 3163 
Q 1850 3163 2022 3333 
Q 2194 3503 2194 3750 
Q 2194 3997 2020 4172 
Q 1847 4347 1600 4347 
z
M 1600 4750 
Q 1800 4750 1984 4673 
Q 2169 4597 2303 4453 
Q 2447 4313 2519 4134 
Q 2591 3956 2591 3750 
Q 2591 3338 2302 3052 
Q 2013 2766 1594 2766 
Q 1172 2766 890 3047 
Q 609 3328 609 3750 
Q 609 4169 896 4459 
Q 1184 4750 1600 4750 
z
" transform="scale(0.015625)"/>
       <path id="DejaVuSans-43" d="M 4122 4306 
L 4122 3641 
Q 3803 3938 3442 4084 
Q 3081 4231 2675 4231 
Q 1875 4231 1450 3742 
Q 1025 3253 1025 2328 
Q 1025 1406 1450 917 
Q 1875 428 2675 428 
Q 3081 428 3442 575 
Q 3803 722 4122 1019 
L 4122 359 
Q 3791 134 3420 21 
Q 3050 -91 2638 -91 
Q 1578 -91 968 557 
Q 359 1206 359 2328 
Q 359 3453 968 4101 
Q 1578 4750 2638 4750 
Q 3056 4750 3426 4639 
Q 3797 4528 4122 4306 
z
" transform="scale(0.015625)"/>
      </defs>
      <use xlink:href="#DejaVuSans-54"/>
      <use xlink:href="#DejaVuSans-65" x="44.083984"/>
      <use xlink:href="#DejaVuSans-6d" x="105.607422"/>
      <use xlink:href="#DejaVuSans-70" x="203.019531"/>
      <use xlink:href="#DejaVuSans-65" x="266.496094"/>
      <use xlink:href="#DejaVuSans-72" x="328.019531"/>
      <use xlink:href="#DejaVuSans-61" x="369.132812"/>
      <use xlink:href="#DejaVuSans-74" x="430.412109"/>
      <use xlink:href="#DejaVuSans-75" x="469.621094"/>
      <use xlink:href="#DejaVuSans-72" x="533"/>
      <use xlink:href="#DejaVuSans-65" x="571.863281"/>
      <use xlink:href="#DejaVuSans-6e" x="633.386719"/>
      <use xlink:href="#DejaVuSans-20" x="696.765625"/>
      <use xlink:href="#DejaVuSans-69" x="728.552734"/>
      <use xlink:href="#DejaVuSans-6e" x="756.335938"/>
      <use xlink:href="#DejaVuSans-20" x="819.714844"/>
      <use xlink:href="#DejaVuSans-b0" x="851.501953"/>
      <use xlink:href="#DejaVuSans-43" x="901.501953"/>
     </g>
    </g>
   </g>
   <g id="line2d_18">
    <path d="M 73.832727 137.499429 
L 74.8868 137.499429 
L 75.413837 142.436571 
L 76.994947 152.310857 
L 77.521983 157.248 
L 79.103093 167.122286 
L 79.63013 168.768 
L 82.265313 185.225143 
L 82.792349 181.933714 
L 83.319386 180.288 
L 83.846423 181.933714 
L 84.373459 181.933714 
L 84.900496 186.870857 
L 85.427532 186.870857 
L 86.481606 190.162286 
L 87.008642 188.516571 
L 88.589752 193.453714 
L 89.116789 200.036571 
L 89.643825 204.973714 
L 90.697898 208.265143 
L 91.224935 211.556571 
L 91.751972 211.556571 
L 92.279008 216.493714 
L 92.806045 218.139429 
L 93.333081 221.430857 
L 93.860118 228.013714 
L 94.387155 224.722286 
L 94.914191 228.013714 
L 95.441228 229.659429 
L 96.495301 229.659429 
L 97.022338 232.950857 
L 98.076411 242.825143 
L 99.130484 246.116571 
L 100.184557 260.928 
L 100.711594 264.219429 
L 101.23863 272.448 
L 101.765667 274.093714 
L 102.81974 274.093714 
L 103.346777 280.676571 
L 103.873813 285.613714 
L 104.40085 288.905143 
L 104.927887 285.613714 
L 105.454923 292.196571 
L 105.98196 295.488 
L 107.036033 288.905143 
L 108.090106 279.030857 
L 108.617143 279.030857 
L 109.144179 275.739429 
L 109.671216 267.510857 
L 110.725289 246.116571 
L 111.252326 249.408 
L 111.779362 244.470857 
L 112.306399 241.179429 
L 112.833436 239.533714 
L 113.360472 231.305143 
L 113.887509 231.305143 
L 114.414545 221.430857 
L 114.941582 208.265143 
L 115.468619 200.036571 
L 115.995655 196.745143 
L 116.522692 188.516571 
L 117.049728 186.870857 
L 117.576765 191.808 
L 118.103802 183.579429 
L 118.630838 183.579429 
L 119.684911 176.996571 
L 120.211948 163.830857 
L 121.793058 163.830857 
L 122.320094 158.893714 
L 122.847131 160.539429 
L 123.374168 147.373714 
L 123.901204 145.728 
L 124.428241 145.728 
L 124.955277 144.082286 
L 125.482314 140.790857 
L 126.009351 130.916571 
L 126.536387 134.208 
L 127.063424 132.562286 
L 127.59046 137.499429 
L 128.117497 130.916571 
L 128.644534 134.208 
L 129.17157 130.916571 
L 129.698607 121.042286 
L 130.225643 121.042286 
L 130.75268 117.750857 
L 131.279717 121.042286 
L 131.806753 121.042286 
L 132.33379 116.105143 
L 133.387863 116.105143 
L 133.9149 119.396571 
L 134.968973 109.522286 
L 135.496009 109.522286 
L 136.023046 104.585143 
L 136.550083 107.876571 
L 137.077119 104.585143 
L 137.604156 107.876571 
L 138.131192 104.585143 
L 139.185266 101.293714 
L 139.712302 104.585143 
L 140.239339 106.230857 
L 140.766375 99.648 
L 141.293412 104.585143 
L 141.820449 104.585143 
L 142.347485 109.522286 
L 142.874522 102.939429 
L 143.401558 107.876571 
L 143.928595 106.230857 
L 144.455632 107.876571 
L 144.982668 104.585143 
L 145.509705 106.230857 
L 146.036741 102.939429 
L 146.563778 109.522286 
L 147.090815 114.459429 
L 147.617851 122.688 
L 148.144888 122.688 
L 149.725998 127.625143 
L 150.253034 127.625143 
L 150.780071 132.562286 
L 152.361181 137.499429 
L 152.888217 135.853714 
L 153.415254 142.436571 
L 154.469327 160.539429 
L 156.050437 185.225143 
L 156.577473 186.870857 
L 157.10451 191.808 
L 157.631547 190.162286 
L 158.158583 186.870857 
L 158.68562 191.808 
L 159.212656 190.162286 
L 159.739693 185.225143 
L 160.26673 186.870857 
L 160.793766 193.453714 
L 161.320803 191.808 
L 161.847839 195.099429 
L 162.374876 196.745143 
L 162.901913 200.036571 
L 163.428949 200.036571 
L 163.955986 198.390857 
L 165.010059 198.390857 
L 165.537096 201.682286 
L 166.064132 200.036571 
L 166.591169 206.619429 
L 167.118205 208.265143 
L 167.645242 218.139429 
L 168.172279 216.493714 
L 168.699315 219.785143 
L 169.226352 221.430857 
L 169.753388 224.722286 
L 170.280425 221.430857 
L 170.807462 223.076571 
L 171.334498 223.076571 
L 171.861535 224.722286 
L 172.388571 228.013714 
L 173.442645 237.888 
L 173.969681 244.470857 
L 174.496718 249.408 
L 175.023754 246.116571 
L 175.550791 244.470857 
L 176.077828 247.762286 
L 176.604864 244.470857 
L 177.131901 249.408 
L 178.185974 246.116571 
L 178.713011 247.762286 
L 179.240047 251.053714 
L 179.767084 251.053714 
L 180.821157 254.345143 
L 181.348194 252.699429 
L 181.87523 255.990857 
L 182.402267 255.990857 
L 182.929303 251.053714 
L 183.45634 249.408 
L 185.03745 239.533714 
L 186.091523 229.659429 
L 186.61856 228.013714 
L 187.145596 228.013714 
L 187.672633 224.722286 
L 188.199669 208.265143 
L 188.726706 204.973714 
L 189.253743 198.390857 
L 189.780779 196.745143 
L 190.307816 193.453714 
L 190.834852 191.808 
L 191.361889 186.870857 
L 191.888926 183.579429 
L 192.415962 183.579429 
L 192.942999 180.288 
L 193.470035 175.350857 
L 193.997072 173.705143 
L 194.524109 170.413714 
L 195.578182 167.122286 
L 196.105218 158.893714 
L 196.632255 158.893714 
L 197.159292 153.956571 
L 197.686328 152.310857 
L 198.213365 152.310857 
L 199.267438 134.208 
L 199.794475 139.145143 
L 200.321511 129.270857 
L 200.848548 127.625143 
L 201.375584 132.562286 
L 201.902621 127.625143 
L 202.429658 124.333714 
L 202.956694 124.333714 
L 203.483731 112.813714 
L 204.010767 107.876571 
L 204.537804 114.459429 
L 205.064841 114.459429 
L 205.591877 102.939429 
L 206.118914 101.293714 
L 206.64595 111.168 
L 207.172987 109.522286 
L 207.700024 106.230857 
L 208.22706 101.293714 
L 208.754097 99.648 
L 209.281133 91.419429 
L 209.80817 94.710857 
L 210.335207 102.939429 
L 210.862243 101.293714 
L 211.38928 111.168 
L 212.443353 89.773714 
L 212.97039 89.773714 
L 213.497426 86.482286 
L 214.024463 99.648 
L 214.551499 107.876571 
L 215.078536 111.168 
L 215.605573 111.168 
L 216.132609 107.876571 
L 216.659646 96.356571 
L 217.186682 99.648 
L 217.713719 84.836571 
L 218.240756 81.545143 
L 218.767792 81.545143 
L 219.294829 79.899429 
L 219.821865 79.899429 
L 220.348902 94.710857 
L 220.875939 104.585143 
L 221.402975 106.230857 
L 222.457048 106.230857 
L 223.511122 119.396571 
L 224.038158 127.625143 
L 224.565195 130.916571 
L 225.092231 132.562286 
L 225.619268 137.499429 
L 226.146305 135.853714 
L 226.673341 135.853714 
L 227.727414 142.436571 
L 228.254451 149.019429 
L 228.781488 150.665143 
L 229.308524 153.956571 
L 230.362597 163.830857 
L 230.889634 170.413714 
L 231.416671 175.350857 
L 231.943707 181.933714 
L 232.470744 191.808 
L 232.99778 195.099429 
L 233.524817 196.745143 
L 234.57889 206.619429 
L 235.105927 204.973714 
L 235.632963 206.619429 
L 236.16 209.910857 
L 236.687037 211.556571 
L 237.214073 216.493714 
L 237.74111 218.139429 
L 238.268146 224.722286 
L 238.795183 224.722286 
L 239.849256 234.596571 
L 240.376293 236.242286 
L 240.903329 234.596571 
L 241.430366 236.242286 
L 242.484439 246.116571 
L 243.011476 241.179429 
L 243.538512 244.470857 
L 244.065549 251.053714 
L 244.592586 247.762286 
L 245.119622 247.762286 
L 247.227769 254.345143 
L 247.754805 254.345143 
L 248.281842 259.282286 
L 248.808878 262.573714 
L 249.335915 259.282286 
L 249.862952 267.510857 
L 250.389988 269.156571 
L 251.444061 265.865143 
L 251.971098 267.510857 
L 252.498135 270.802286 
L 253.025171 272.448 
L 253.552208 270.802286 
L 254.079244 270.802286 
L 254.606281 274.093714 
L 255.133318 274.093714 
L 255.660354 272.448 
L 256.187391 274.093714 
L 256.714427 279.030857 
L 257.241464 279.030857 
L 257.768501 275.739429 
L 258.295537 277.385143 
L 259.34961 274.093714 
L 259.876647 269.156571 
L 260.403684 259.282286 
L 260.93072 255.990857 
L 261.984793 242.825143 
L 262.51183 228.013714 
L 263.038867 201.682286 
L 263.565903 193.453714 
L 264.09294 181.933714 
L 265.147013 172.059429 
L 265.67405 168.768 
L 266.201086 167.122286 
L 266.728123 163.830857 
L 267.255159 163.830857 
L 267.782196 168.768 
L 268.309233 162.185143 
L 268.836269 157.248 
L 269.363306 153.956571 
L 269.890342 155.602286 
L 270.417379 152.310857 
L 270.944416 147.373714 
L 271.471452 139.145143 
L 271.998489 140.790857 
L 272.525525 134.208 
L 273.052562 134.208 
L 274.106635 137.499429 
L 274.633672 125.979429 
L 275.160708 122.688 
L 275.687745 125.979429 
L 276.214782 125.979429 
L 276.741818 122.688 
L 277.268855 116.105143 
L 277.795891 117.750857 
L 278.322928 112.813714 
L 278.849965 109.522286 
L 279.377001 116.105143 
L 279.904038 104.585143 
L 280.431074 102.939429 
L 280.958111 99.648 
L 281.485148 94.710857 
L 282.012184 98.002286 
L 282.539221 99.648 
L 283.066257 91.419429 
L 283.593294 86.482286 
L 284.120331 84.836571 
L 284.647367 88.128 
L 285.174404 88.128 
L 285.70144 83.190857 
L 286.228477 76.608 
L 286.755514 79.899429 
L 287.28255 71.670857 
L 287.809587 79.899429 
L 288.336623 78.253714 
L 288.86366 74.962286 
L 289.390697 78.253714 
L 289.917733 70.025143 
L 290.44477 66.733714 
L 290.971806 73.316571 
L 291.498843 68.379429 
L 292.02588 66.733714 
L 292.552916 60.150857 
L 293.079953 63.442286 
L 293.606989 70.025143 
L 294.134026 71.670857 
L 294.661063 60.150857 
L 295.188099 61.796571 
L 295.715136 71.670857 
L 296.769209 84.836571 
L 297.296246 88.128 
L 297.823282 88.128 
L 298.350319 89.773714 
L 298.877355 93.065143 
L 299.404392 94.710857 
L 299.931429 94.710857 
L 300.458465 99.648 
L 300.985502 102.939429 
L 301.512538 104.585143 
L 302.039575 102.939429 
L 302.566612 102.939429 
L 303.093648 104.585143 
L 304.147721 124.333714 
L 304.674758 129.270857 
L 305.201795 132.562286 
L 306.255868 142.436571 
L 306.782904 149.019429 
L 307.309941 147.373714 
L 307.836978 152.310857 
L 308.364014 155.602286 
L 308.891051 162.185143 
L 309.418087 165.476571 
L 309.945124 170.413714 
L 310.472161 170.413714 
L 310.999197 173.705143 
L 311.526234 173.705143 
L 312.05327 176.996571 
L 312.580307 176.996571 
L 313.107344 173.705143 
L 313.63438 183.579429 
L 314.688453 170.413714 
L 315.21549 168.768 
L 315.742527 168.768 
L 317.323636 178.642286 
L 317.850673 175.350857 
L 318.37771 175.350857 
L 319.431783 181.933714 
L 319.958819 193.453714 
L 320.485856 198.390857 
L 321.012893 193.453714 
L 321.539929 193.453714 
L 322.066966 196.745143 
L 322.594002 198.390857 
L 323.121039 204.973714 
L 323.648076 204.973714 
L 324.175112 211.556571 
L 324.702149 213.202286 
L 325.229185 216.493714 
L 326.283259 231.305143 
L 327.337332 231.305143 
L 327.864368 229.659429 
L 328.391405 226.368 
L 329.445478 208.265143 
L 329.972515 208.265143 
L 330.499551 204.973714 
L 331.026588 208.265143 
L 331.553625 209.910857 
L 332.080661 216.493714 
L 332.607698 218.139429 
L 333.134734 218.139429 
L 333.661771 219.785143 
L 334.188808 228.013714 
L 334.715844 228.013714 
L 335.242881 226.368 
L 336.296954 208.265143 
L 336.823991 196.745143 
L 337.351027 191.808 
L 337.878064 188.516571 
L 338.4051 181.933714 
L 338.932137 172.059429 
L 339.459174 165.476571 
L 339.98621 153.956571 
L 340.513247 152.310857 
L 341.040283 149.019429 
L 342.094357 134.208 
L 342.621393 137.499429 
L 343.14843 137.499429 
L 343.675466 139.145143 
L 344.202503 130.916571 
L 344.72954 127.625143 
L 345.256576 122.688 
L 345.783613 125.979429 
L 346.310649 117.750857 
L 346.837686 122.688 
L 347.364723 116.105143 
L 347.891759 116.105143 
L 348.418796 112.813714 
L 348.945832 104.585143 
L 349.472869 109.522286 
L 349.999906 106.230857 
L 351.053979 106.230857 
L 351.581015 99.648 
L 352.635089 93.065143 
L 353.162125 94.710857 
L 353.689162 89.773714 
L 354.216198 86.482286 
L 354.743235 79.899429 
L 355.270272 81.545143 
L 355.797308 79.899429 
L 356.324345 84.836571 
L 356.851381 74.962286 
L 357.378418 70.025143 
L 358.432491 73.316571 
L 358.959528 66.733714 
L 359.486564 58.505143 
L 360.013601 65.088 
L 360.540638 84.836571 
L 361.067674 91.419429 
L 361.594711 86.482286 
L 362.121747 91.419429 
L 363.175821 84.836571 
L 363.702857 73.316571 
L 364.229894 79.899429 
L 364.75693 61.796571 
L 365.283967 56.859429 
L 365.811004 61.796571 
L 366.33804 53.568 
L 366.865077 56.859429 
L 367.392113 61.796571 
L 367.91915 63.442286 
L 368.446187 55.213714 
L 368.973223 61.796571 
L 369.50026 65.088 
L 370.027296 61.796571 
L 370.554333 60.150857 
L 371.08137 61.796571 
L 371.608406 71.670857 
L 372.135443 71.670857 
L 372.662479 70.025143 
L 373.189516 71.670857 
L 374.243589 78.253714 
L 374.770626 78.253714 
L 375.297662 93.065143 
L 376.351736 96.356571 
L 376.878772 93.065143 
L 377.405809 96.356571 
L 377.932845 101.293714 
L 378.459882 102.939429 
L 378.986919 106.230857 
L 379.513955 107.876571 
L 380.568028 114.459429 
L 381.095065 121.042286 
L 382.149138 121.042286 
L 382.676175 127.625143 
L 383.203211 132.562286 
L 384.257285 139.145143 
L 384.784321 140.790857 
L 385.838394 155.602286 
L 386.365431 158.893714 
L 386.892468 163.830857 
L 387.419504 167.122286 
L 387.946541 167.122286 
L 390.054687 173.705143 
L 390.581724 172.059429 
L 391.10876 172.059429 
L 392.68987 176.996571 
L 393.216907 180.288 
L 393.743943 181.933714 
L 394.27098 185.225143 
L 394.798017 186.870857 
L 395.325053 185.225143 
L 395.85209 186.870857 
L 396.379126 181.933714 
L 396.906163 183.579429 
L 397.960236 190.162286 
L 398.487273 190.162286 
L 398.487273 190.162286 
" clip-path="url(#pdb9daf01b2)" style="fill: none; stroke: #1f77b4; stroke-width: 1.5; stroke-linecap: square"/>
   </g>
   <g id="patch_3">
    <path d="M 57.6 307.584 
L 57.6 41.472 
" style="fill: none; stroke: #000000; stroke-width: 0.8; stroke-linejoin: miter; stroke-linecap: square"/>
   </g>
   <g id="patch_4">
    <path d="M 414.72 307.584 
L 414.72 41.472 
" style="fill: none; stroke: #000000; stroke-width: 0.8; stroke-linejoin: miter; stroke-linecap: square"/>
   </g>
   <g id="patch_5">
    <path d="M 57.6 307.584 
L 414.72 307.584 
" style="fill: none; stroke: #000000; stroke-width: 0.8; stroke-linejoin: miter; stroke-linecap: square"/>
   </g>
   <g id="patch_6">
    <path d="M 57.6 41.472 
L 414.72 41.472 
" style="fill: none; stroke: #000000; stroke-width: 0.8; stroke-linejoin: miter; stroke-linecap: square"/>
   </g>
   <g id="text_20">
    <!-- Wetter der letzten 5 Tage -->
    <g transform="translate(160.05375 35.472) scale(0.12 -0.12)">
     <defs>
      <path id="DejaVuSans-57" d="M 213 4666 
L 850 4666 
L 1831 722 
L 2809 4666 
L 3519 4666 
L 4500 722 
L 5478 4666 
L 6119 4666 
L 4947 0 
L 4153 0 
L 3169 4050 
L 2175 0 
L 1381 0 
L 213 4666 
z
" transform="scale(0.015625)"/>
      <path id="DejaVuSans-64" d="M 2906 2969 
L 2906 4863 
L 3481 4863 
L 3481 0 
L 2906 0 
L 2906 525 
Q 2725 213 2448 61 
Q 2172 -91 1784 -91 
Q 1150 -91 751 415 
Q 353 922 353 1747 
Q 353 2572 751 3078 
Q 1150 3584 1784 3584 
Q 2172 3584 2448 3432 
Q 2725 3281 2906 2969 
z
M 947 1747 
Q 947 1113 1208 752 
Q 1469 391 1925 391 
Q 2381 391 2643 752 
Q 2906 1113 2906 1747 
Q 2906 2381 2643 2742 
Q 2381 3103 1925 3103 
Q 1469 3103 1208 2742 
Q 947 2381 947 1747 
z
" transform="scale(0.015625)"/>
      <path id="DejaVuSans-6c" d="M 603 4863 
L 1178 4863 
L 1178 0 
L 603 0 
L 603 4863 
z
" transform="scale(0.015625)"/>
      <path id="DejaVuSans-7a" d="M 353 3500 
L 3084 3500 
L 3084 2975 
L 922 459 
L 3084 459 
L 3084 0 
L 275 0 
L 275 525 
L 2438 3041 
L 353 3041 
L 353 3500 
z
" transform="scale(0.015625)"/>
      <path id="DejaVuSans-67" d="M 2906 1791 
Q 2906 2416 2648 2759 
Q 2391 3103 1925 3103 
Q 1463 3103 1205 2759 
Q 947 2416 947 1791 
Q 947 1169 1205 825 
Q 1463 481 1925 481 
Q 2391 481 2648 825 
Q 2906 1169 2906 1791 
z
M 3481 434 
Q 3481 -459 3084 -895 
Q 2688 -1331 1869 -1331 
Q 1566 -1331 1297 -1286 
Q 1028 -1241 775 -1147 
L 775 -588 
Q 1028 -725 1275 -790 
Q 1522 -856 1778 -856 
Q 2344 -856 2625 -561 
Q 2906 -266 2906 331 
L 2906 616 
Q 2728 306 2450 153 
Q 2172 0 1784 0 
Q 1141 0 747 490 
Q 353 981 353 1791 
Q 353 2603 747 3093 
Q 1141 3584 1784 3584 
Q 2172 3584 2450 3431 
Q 2728 3278 2906 2969 
L 2906 3500 
L 3481 3500 
L 3481 434 
z
" transform="scale(0.015625)"/>
     </defs>
     <use xlink:href="#DejaVuSans-57"/>
     <use xlink:href="#DejaVuSans-65" x="93.001953"/>
     <use xlink:href="#DejaVuSans-74" x="154.525391"/>
     <use xlink:href="#DejaVuSans-74" x="193.734375"/>
     <use xlink:href="#DejaVuSans-65" x="232.943359"/>
     <use xlink:href="#DejaVuSans-72" x="294.466797"/>
     <use xlink:href="#DejaVuSans-20" x="335.580078"/>
     <use xlink:href="#DejaVuSans-64" x="367.367188"/>
     <use xlink:href="#DejaVuSans-65" x="430.84375"/>
     <use xlink:href="#DejaVuSans-72" x="492.367188"/>
     <use xlink:href="#DejaVuSans-20" x="533.480469"/>
     <use xlink:href="#DejaVuSans-6c" x="565.267578"/>
     <use xlink:href="#DejaVuSans-65" x="593.050781"/>
     <use xlink:href="#DejaVuSans-74" x="654.574219"/>
     <use xlink:href="#DejaVuSans-7a" x="693.783203"/>
     <use xlink:href="#DejaVuSans-74" x="746.273438"/>
     <use xlink:href="#DejaVuSans-65" x="785.482422"/>
     <use xlink:href="#DejaVuSans-6e" x="847.005859"/>
     <use xlink:href="#DejaVuSans-20" x="910.384766"/>
     <use xlink:href="#DejaVuSans-35" x="942.171875"/>
     <use xlink:href="#DejaVuSans-20" x="1005.794922"/>
     <use xlink:href="#DejaVuSans-54" x="1037.582031"/>
     <use xlink:href="#DejaVuSans-61" x="1082.166016"/>
     <use xlink:href="#DejaVuSans-67" x="1143.445312"/>
     <use xlink:href="#DejaVuSans-65" x="1206.921875"/>
    </g>
   </g>
  </g>
 </g>
 <defs>
  <clipPath id="pdb9daf01b2">
   <rect x="57.6" y="41.472" width="357.12" height="266.112"/>
  </clipPath>
 </defs>
</svg>
